<svg xmlns="http://www.w3.org/2000/svg" viewBox="0 0 900 1100" fill="none">
  <defs>
    <linearGradient id="sky" x1="450" y1="0" x2="450" y2="1100" gradientUnits="userSpaceOnUse">
      <stop stop-color="#31594B"/>
      <stop offset="1" stop-color="#101916"/>
    </linearGradient>
    <linearGradient id="stone" x1="450" y1="280" x2="450" y2="900" gradientUnits="userSpaceOnUse">
      <stop stop-color="#D1B58A"/>
      <stop offset="1" stop-color="#775F4B"/>
    </linearGradient>
  </defs>
  <path fill="url(#sky)" d="M0 0h900v1100H0z"/>
  <circle cx="705" cy="200" r="108" fill="#E5CFA6" fill-opacity=".32"/>
  <path fill="#18251F" d="M0 770h900v330H0z"/>
  <path fill="url(#stone)" d="M130 475h640v470H130z"/>
  <path fill="#8C7258" d="M95 475 450 275l355 200H95Z"/>
  <path fill="#DCC49A" d="M210 450V360h70v90h-70Zm410 0v-90h70v90h-70Z"/>
  <path fill="#5A483C" d="M192 506h516v48H192z"/>
  <path fill="#26372E" d="M215 590h95v250h-95zm180 0h110v355H395zm180 0h95v250h-95z"/>
  <path stroke="#D9C39A" stroke-width="12" d="M262 590v250m180-250v355m180-355v250"/>
  <path fill="#B9976E" d="M0 945h900v155H0z"/>
  <path stroke="#E7D3AA" stroke-opacity=".24" stroke-width="3" d="M0 990h900M0 1045h900"/>
</svg>
